<svg width="24" height="24" viewBox="0 0 24 24" fill="none" xmlns="http://www.w3.org/2000/svg">
<path d="M2.00049 19V11.2013C2.00049 9.90949 2.62432 8.69723 3.67547 7.94638L10.8376 2.83035C11.533 2.33363 12.4672 2.33361 13.1626 2.8303L20.3254 7.94639C21.3766 8.69723 22.0005 9.90953 22.0005 11.2014V19C22.0005 20.6568 20.6573 22 19.0005 22H16.1429C15.0384 22 14.1429 21.1046 14.1429 20V18.5C14.1429 17.6716 13.4714 17 12.6429 17H11.3572C10.5288 17 9.85721 17.6716 9.85721 18.5V20C9.85721 21.1046 8.96178 22 7.85721 22H5.00049C3.34363 22 2.00049 20.6568 2.00049 19Z" fill="white"/>
<path fill-rule="evenodd" clip-rule="evenodd" d="M10.4017 2.22006C11.3578 1.53706 12.6423 1.53704 13.5985 2.22L20.7613 7.33608C22.0096 8.2277 22.7505 9.66731 22.7505 11.2014V19C22.7505 21.0711 21.0716 22.75 19.0005 22.75H16.1429C14.6241 22.75 13.3929 21.5188 13.3929 20V18.5C13.3929 18.0858 13.0571 17.75 12.6429 17.75H11.3572C10.943 17.75 10.6072 18.0858 10.6072 18.5V20C10.6072 21.5188 9.37599 22.75 7.85721 22.75H5.00049C2.92942 22.75 1.25049 21.0711 1.25049 19V11.2013C1.25049 9.66728 1.99129 8.22772 3.23953 7.33609L10.4017 2.22006ZM12.7266 3.44061C12.292 3.13018 11.7082 3.13019 11.2736 3.44064L4.11141 8.55667C3.25735 9.16674 2.75049 10.1517 2.75049 11.2013V19C2.75049 20.2426 3.75785 21.25 5.00049 21.25H7.85721C8.54757 21.25 9.10721 20.6903 9.10721 20V18.5C9.10721 17.2573 10.1146 16.25 11.3572 16.25H12.6429C13.8856 16.25 14.8929 17.2573 14.8929 18.5V20C14.8929 20.6903 15.4526 21.25 16.1429 21.25H19.0005C20.2431 21.25 21.2505 20.2426 21.2505 19V11.2014C21.2505 10.1518 20.7436 9.16675 19.8895 8.55669L12.7266 3.44061Z" fill="white"/>
</svg>
