<svg width="24" height="24" viewBox="0 0 24 24" fill="none" xmlns="http://www.w3.org/2000/svg">
<path d="M11.0768 3.21994C11.4184 2.39865 12.5818 2.39865 12.9234 3.21994L14.9396 8.06736C15.0836 8.4136 15.4092 8.65017 15.783 8.68013L21.0162 9.09968C21.9028 9.17076 22.2623 10.2773 21.5868 10.8559L17.5997 14.2713C17.3149 14.5153 17.1905 14.8981 17.2775 15.2628L18.4956 20.3695C18.702 21.2348 17.7608 21.9186 17.0017 21.455L12.5213 18.7184C12.2013 18.5229 11.7988 18.5229 11.4788 18.7184L6.99848 21.455C6.23938 21.9186 5.29813 21.2348 5.50452 20.3695L6.72266 15.2628C6.80966 14.8981 6.68529 14.5153 6.4005 14.2713L2.41336 10.8559C1.73782 10.2773 2.09735 9.17076 2.984 9.09968L8.2172 8.68013C8.59099 8.65017 8.9166 8.4136 9.06061 8.06736L11.0768 3.21994Z" fill="white"/>
<path fill-rule="evenodd" clip-rule="evenodd" d="M10.3844 2.93192C10.9821 1.49466 13.0182 1.49466 13.616 2.93192L15.6321 7.77934C15.6681 7.8659 15.7495 7.92504 15.843 7.93253L21.0762 8.35208C22.6278 8.47647 23.257 10.4129 22.0748 11.4255L18.0877 14.8409C18.0165 14.9019 17.9854 14.9976 18.0071 15.0888L19.2253 20.1955C19.5864 21.7097 17.9392 22.9064 16.6108 22.095L12.1305 19.3584C12.0505 19.3096 11.9499 19.3096 11.8699 19.3584L7.38951 22.095C6.06108 22.9064 4.41389 21.7097 4.77507 20.1955L5.99321 15.0888C6.01496 14.9976 5.98387 14.9019 5.91267 14.8409L1.92553 11.4255C0.743334 10.4129 1.37251 8.47647 2.92415 8.35208L8.15735 7.93253C8.2508 7.92504 8.3322 7.8659 8.3682 7.77934L10.3844 2.93192ZM12.231 3.50797C12.1456 3.30264 11.8547 3.30264 11.7693 3.50797L9.75318 8.35539C9.50117 8.9613 8.93135 9.37529 8.27722 9.42773L3.04402 9.84728C2.82236 9.86505 2.73248 10.1417 2.90136 10.2863L6.88851 13.7018C7.38689 14.1287 7.60454 14.7985 7.45227 15.4369L6.23414 20.5436C6.18254 20.7599 6.41785 20.9308 6.60763 20.8149L11.088 18.0783C11.648 17.7363 12.3523 17.7363 12.9124 18.0783L17.3927 20.8149C17.5825 20.9308 17.8178 20.7599 17.7662 20.5436L16.5481 15.4369C16.3958 14.7985 16.6134 14.1287 17.1118 13.7018L21.099 10.2863C21.2679 10.1417 21.178 9.86505 20.9563 9.84728L15.7231 9.42773C15.069 9.37529 14.4992 8.9613 14.2472 8.35539L12.231 3.50797Z" fill="white"/>
</svg>
