<svg width="24" height="24" viewBox="0 0 24 24" fill="none" xmlns="http://www.w3.org/2000/svg">
<path fill-rule="evenodd" clip-rule="evenodd" d="M2.2002 8C2.2002 6.34315 3.54334 5 5.2002 5H18.8002C20.457 5 21.8002 6.34315 21.8002 8V9.1998C21.8002 9.19991 21.8001 9.2 21.8 9.2C20.2536 9.2 19 10.4536 19 12C19 13.5464 20.2536 14.8 21.8 14.8C21.8001 14.8 21.8002 14.8001 21.8002 14.8002V16C21.8002 17.6569 20.457 19 18.8002 19H5.2002C3.54334 19 2.2002 17.6569 2.2002 16V14.9C2.2002 14.8448 2.24516 14.8002 2.30035 14.7982C3.80027 14.7454 5 13.5128 5 12C5 10.4872 3.80027 9.2546 2.30035 9.20176C2.24516 9.19982 2.2002 9.15523 2.2002 9.10001V8Z" fill="white"/>
<path fill-rule="evenodd" clip-rule="evenodd" d="M1.4502 8C1.4502 5.92893 3.12913 4.25 5.2002 4.25H18.8002C20.8713 4.25 22.5502 5.92893 22.5502 8V9.1998C22.5502 9.61413 22.2143 9.95 21.8 9.95C20.6678 9.95 19.75 10.8678 19.75 12C19.75 13.1322 20.6678 14.05 21.8 14.05C22.2144 14.05 22.5502 14.386 22.5502 14.8002V16C22.5502 18.0711 20.8713 19.75 18.8002 19.75H5.2002C3.12913 19.75 1.4502 18.0711 1.4502 16V14.9C1.4502 14.4224 1.83379 14.0642 2.27395 14.0487C3.37161 14.01 4.25 13.1074 4.25 12C4.25 10.8926 3.37161 9.98997 2.27395 9.9513C1.83379 9.93579 1.4502 9.57765 1.4502 9.10001V8ZM5.2002 5.75C3.95755 5.75 2.9502 6.75736 2.9502 8V8.52948C4.55069 8.87387 5.75 10.2967 5.75 12C5.75 13.7033 4.55069 15.1261 2.9502 15.4705V16C2.9502 17.2426 3.95756 18.25 5.2002 18.25H18.8002C20.0428 18.25 21.0502 17.2426 21.0502 16V15.4707C19.4497 15.1265 18.25 13.7034 18.25 12C18.25 10.2966 19.4497 8.87346 21.0502 8.52933V8C21.0502 6.75736 20.0428 5.75 18.8002 5.75H5.2002Z" fill="white"/>
<path fill-rule="evenodd" clip-rule="evenodd" d="M14.8003 7.25003C15.2145 7.25003 15.5503 7.58582 15.5503 8.00003V16C15.5503 16.4142 15.2145 16.75 14.8003 16.75C14.3861 16.75 14.0503 16.4142 14.0503 16V8.00003C14.0503 7.58582 14.3861 7.25003 14.8003 7.25003Z" fill="#1F1F36"/>
</svg>
