<svg width="24" height="24" viewBox="0 0 24 24" fill="none" xmlns="http://www.w3.org/2000/svg">
<g clip-path="url(#clip0_91_8841)">
<path d="M21.2924 12.9292C21.6829 13.3197 21.6829 13.9529 21.2924 14.3434L14.343 21.2928C13.9525 21.6833 13.3193 21.6833 12.9288 21.2928L3.47422 11.8383C3.28668 11.6507 3.18133 11.3964 3.18133 11.1312L3.18133 4.18175C3.18133 3.62946 3.62905 3.18175 4.18133 3.18175L11.1308 3.18175C11.396 3.18175 11.6503 3.2871 11.8379 3.47464L21.2924 12.9292Z" fill="white"/>
<path fill-rule="evenodd" clip-rule="evenodd" d="M21.8231 12.3989C22.5065 13.0823 22.5065 14.1903 21.8231 14.8737L14.8737 21.8232C14.1903 22.5066 13.0822 22.5066 12.3988 21.8231L2.94427 12.3686C2.61608 12.0404 2.4317 11.5953 2.4317 11.1312L2.4317 4.18175C2.43171 3.21525 3.21521 2.43175 4.1817 2.43175L11.1311 2.43175C11.5953 2.43175 12.0404 2.61612 12.3686 2.94431L21.8231 12.3989ZM20.7624 13.8131C20.8601 13.7154 20.8601 13.5571 20.7625 13.4595L11.3079 4.00497C11.261 3.95809 11.1974 3.93175 11.1311 3.93175L4.18171 3.93175C4.04363 3.93175 3.9317 4.04368 3.93171 4.18175L3.9317 11.1312C3.9317 11.1975 3.95804 11.2611 4.00493 11.3079L13.4595 20.7625C13.5571 20.8601 13.7154 20.8601 13.813 20.7625L20.7624 13.8131Z" fill="white"/>
<path d="M7.36339 9.45555C6.786 8.87816 6.786 7.94203 7.36339 7.36464C7.94078 6.78725 8.87691 6.78725 9.4543 7.36464C10.0317 7.94203 10.0317 8.87816 9.4543 9.45555C8.87691 10.0329 7.94078 10.0329 7.36339 9.45555Z" fill="#1F1F36"/>
</g>
<defs>
<clipPath id="clip0_91_8841">
<rect width="24" height="24" fill="white"/>
</clipPath>
</defs>
</svg>
