<svg width="24" height="24" viewBox="0 0 24 24" fill="none" xmlns="http://www.w3.org/2000/svg">
<path d="M2.00068 7.00021C2.00084 4.23879 4.23955 2.00035 7.00098 2.00051L16.9981 2.00112C19.7595 2.00128 21.998 4.23999 21.9978 7.00142L21.9972 16.9985C21.997 19.76 19.7583 21.9984 16.9969 21.9982L6.99977 21.9976C4.23834 21.9975 1.99991 19.7587 2.00007 16.9973L2.00068 7.00021Z" fill="white"/>
<path fill-rule="evenodd" clip-rule="evenodd" d="M1.25063 7.00018C1.25082 3.82454 3.82534 1.25034 7.00098 1.25053L16.9981 1.25113C20.1737 1.25132 22.7479 3.82584 22.7477 7.00148L22.7471 16.9986C22.7469 20.1742 20.1724 22.7484 16.9968 22.7482L6.99968 22.7476C3.82404 22.7475 1.24984 20.1729 1.25003 16.9973L1.25063 7.00018ZM7.00089 2.75053C4.65368 2.75039 2.75077 4.65306 2.75063 7.00027L2.75003 16.9974C2.74989 19.3446 4.65256 21.2475 6.99977 21.2476L16.9969 21.2482C19.3441 21.2484 21.247 19.3457 21.2471 16.9985L21.2477 7.00139C21.2479 4.65418 19.3452 2.75127 16.998 2.75113L7.00089 2.75053Z" fill="white"/>
<path fill-rule="evenodd" clip-rule="evenodd" d="M16.0204 8.54308C16.3517 8.79161 16.4189 9.26171 16.1704 9.59308L11.9614 15.205C11.6322 15.6439 10.9796 15.6607 10.6284 15.2392L7.85281 11.9085C7.58763 11.5903 7.63063 11.1173 7.94884 10.8522C8.26704 10.587 8.73997 10.63 9.00514 10.9482L11.2546 13.6475L14.9704 8.69308C15.2189 8.36171 15.689 8.29455 16.0204 8.54308Z" fill="#1F1F36"/>
</svg>
