<svg width="24" height="24" viewBox="0 0 24 24" fill="none" xmlns="http://www.w3.org/2000/svg">
<path d="M22 12C22 17.5228 17.5228 22 12 22C6.47715 22 2 17.5228 2 12C2 6.47715 6.47715 2 12 2C17.5228 2 22 6.47715 22 12Z" fill="white"/>
<path fill-rule="evenodd" clip-rule="evenodd" d="M12 2.75C6.89137 2.75 2.75 6.89137 2.75 12C2.75 17.1086 6.89137 21.25 12 21.25C17.1086 21.25 21.25 17.1086 21.25 12C21.25 6.89137 17.1086 2.75 12 2.75ZM1.25 12C1.25 6.06294 6.06294 1.25 12 1.25C17.9371 1.25 22.75 6.06294 22.75 12C22.75 17.9371 17.9371 22.75 12 22.75C6.06294 22.75 1.25 17.9371 1.25 12Z" fill="white"/>
<path d="M9.77767 9.22221C9.77767 10.1427 9.03148 10.8889 8.111 10.8889C7.19053 10.8889 6.44434 10.1427 6.44434 9.22221C6.44434 8.30173 7.19053 7.55554 8.111 7.55554C9.03148 7.55554 9.77767 8.30173 9.77767 9.22221Z" fill="#1F1F36"/>
<path d="M17.5555 9.22221C17.5555 10.1427 16.8093 10.8889 15.8888 10.8889C14.9684 10.8889 14.2222 10.1427 14.2222 9.22221C14.2222 8.30173 14.9684 7.55554 15.8888 7.55554C16.8093 7.55554 17.5555 8.30173 17.5555 9.22221Z" fill="#1F1F36"/>
<path fill-rule="evenodd" clip-rule="evenodd" d="M7.13323 14.7137C7.47547 14.4803 7.94207 14.5686 8.17541 14.9108C9.02249 16.1532 10.4865 16.8055 12.0002 16.8055C13.5138 16.8055 14.9779 16.1532 15.825 14.9108C16.0583 14.5686 16.5249 14.4803 16.8671 14.7137C17.2094 14.947 17.2976 15.4136 17.0643 15.7558C15.8912 17.4764 13.9209 18.3055 12.0002 18.3055C10.0795 18.3055 8.10919 17.4764 6.93607 15.7558C6.70272 15.4136 6.791 14.947 7.13323 14.7137Z" fill="#1F1F36"/>
</svg>
