<svg width="24" height="24" viewBox="0 0 24 24" fill="none" xmlns="http://www.w3.org/2000/svg">
<path d="M18.5 8.91852C18.5 14.87 13.6593 20.308 12.3327 21.6865C12.1474 21.879 11.8526 21.879 11.6673 21.6865C10.3407 20.308 5.5 14.87 5.5 8.91852C5.5 4.78059 8.75 2.02197 12 2.02197C15.25 2.02197 18.5 4.78059 18.5 8.91852Z" fill="white"/>
<path fill-rule="evenodd" clip-rule="evenodd" d="M12 2.77197C9.15729 2.77197 6.25 5.2017 6.25 8.91852C6.25 11.7004 7.38582 14.4096 8.72797 16.6293C9.93645 18.628 11.2793 20.176 12 20.9473C12.7207 20.176 14.0636 18.628 15.272 16.6293C16.6142 14.4096 17.75 11.7004 17.75 8.91852C17.75 5.2017 14.8427 2.77197 12 2.77197ZM4.75 8.91852C4.75 4.35949 8.34271 1.27197 12 1.27197C15.6573 1.27197 19.25 4.35949 19.25 8.91852C19.25 12.0882 17.9655 15.0737 16.5556 17.4054C15.1405 19.7459 13.5581 21.4948 12.8731 22.2066C12.3928 22.7057 11.6072 22.7057 11.1269 22.2066C10.4419 21.4948 8.8595 19.7459 7.44436 17.4054C6.03452 15.0737 4.75 12.0882 4.75 8.91852Z" fill="white"/>
<path d="M14 10C14 11.1046 13.1046 12 12 12C10.8954 12 10 11.1046 10 10C10 8.89543 10.8954 8 12 8C13.1046 8 14 8.89543 14 10Z" fill="#1F1F36"/>
</svg>
