<svg width="24" height="24" viewBox="0 0 24 24" fill="none" xmlns="http://www.w3.org/2000/svg">
<path d="M21 12C21 16.9706 16.9706 21 12 21C7.02944 21 3 16.9706 3 12C3 7.02944 7.02944 3 12 3C16.9706 3 21 7.02944 21 12Z" fill="white"/>
<path fill-rule="evenodd" clip-rule="evenodd" d="M12 3.75C7.44365 3.75 3.75 7.44365 3.75 12C3.75 16.5563 7.44365 20.25 12 20.25C16.5563 20.25 20.25 16.5563 20.25 12C20.25 7.44365 16.5563 3.75 12 3.75ZM2.25 12C2.25 6.61522 6.61522 2.25 12 2.25C17.3848 2.25 21.75 6.61522 21.75 12C21.75 17.3848 17.3848 21.75 12 21.75C6.61522 21.75 2.25 17.3848 2.25 12Z" fill="white"/>
<path fill-rule="evenodd" clip-rule="evenodd" d="M12 5.25C12.4142 5.25 12.75 5.58579 12.75 6V12C12.75 12.4142 12.4142 12.75 12 12.75H7.5C7.08579 12.75 6.75 12.4142 6.75 12C6.75 11.5858 7.08579 11.25 7.5 11.25H11.25V6C11.25 5.58579 11.5858 5.25 12 5.25Z" fill="#1F1F36"/>
<path fill-rule="evenodd" clip-rule="evenodd" d="M8 19.75C8.41421 19.75 8.75 20.0858 8.75 20.5V22C8.75 22.4142 8.41421 22.75 8 22.75C7.58579 22.75 7.25 22.4142 7.25 22V20.5C7.25 20.0858 7.58579 19.75 8 19.75Z" fill="white"/>
<path fill-rule="evenodd" clip-rule="evenodd" d="M16 19.75C16.4142 19.75 16.75 20.0858 16.75 20.5V22C16.75 22.4142 16.4142 22.75 16 22.75C15.5858 22.75 15.25 22.4142 15.25 22V20.5C15.25 20.0858 15.5858 19.75 16 19.75Z" fill="white"/>
<path fill-rule="evenodd" clip-rule="evenodd" d="M17.4697 1.46967C17.7626 1.17678 18.2374 1.17678 18.5303 1.46967L22.5303 5.46967C22.8232 5.76256 22.8232 6.23744 22.5303 6.53033C22.2374 6.82322 21.7626 6.82322 21.4697 6.53033L17.4697 2.53033C17.1768 2.23744 17.1768 1.76256 17.4697 1.46967Z" fill="white"/>
<path fill-rule="evenodd" clip-rule="evenodd" d="M6.53033 1.46967C6.82322 1.76256 6.82322 2.23744 6.53033 2.53033L2.53033 6.53033C2.23744 6.82322 1.76256 6.82322 1.46967 6.53033C1.17678 6.23744 1.17678 5.76256 1.46967 5.46967L5.46967 1.46967C5.76256 1.17678 6.23744 1.17678 6.53033 1.46967Z" fill="white"/>
</svg>
