<svg width="24" height="24" viewBox="0 0 24 24" fill="none" xmlns="http://www.w3.org/2000/svg">
<path d="M18.964 15.3333C18.6241 18.6667 16.159 22 11.8282 22C4.48226 22 2.98073 14.0637 7.7258 10C11.5335 6.73894 11.8911 6.30977 11.6358 2.27369C11.6299 2.18085 11.7426 2.12921 11.8062 2.19711C14.2191 4.77391 14.8176 7.42726 13.6017 13.1579C13.5855 13.234 13.6578 13.3006 13.73 13.2713C15.5068 12.5506 16.882 10.1825 17.0084 8.28025C17.0146 8.18639 17.1322 8.14645 17.1862 8.22351C18.216 9.69525 19.2024 12.9955 18.964 15.3333Z" fill="white"/>
<path fill-rule="evenodd" clip-rule="evenodd" d="M10.8875 2.32102C10.8405 1.57826 11.7739 1.06518 12.3538 1.68446C13.6376 3.05544 14.474 4.49072 14.8036 6.36491C15.066 7.85744 14.9998 9.58943 14.638 11.7352C14.8959 11.4699 15.1378 11.1605 15.3544 10.818C15.8808 9.98554 16.2067 9.03701 16.2602 8.23052C16.2852 7.85425 16.5419 7.57462 16.8462 7.475C17.1613 7.37185 17.5636 7.45449 17.8008 7.79351C18.3847 8.62793 18.9177 9.91297 19.2757 11.2611C19.6348 12.6133 19.8419 14.1192 19.7103 15.4094C19.3415 19.0264 16.6359 22.75 11.8284 22.75C7.83835 22.75 5.3175 20.5603 4.52103 17.7269C3.73862 14.9434 4.65196 11.6452 7.23812 9.43035C9.18581 7.76228 10.089 6.94176 10.5401 6.07974C10.9639 5.26984 11.0163 4.35727 10.8875 2.32102L11.636 2.27368L10.8875 2.32102ZM12.4458 4.24838C12.4184 5.21867 12.2672 6.01439 11.8691 6.7752C11.2533 7.95204 10.0739 8.97664 8.21384 10.5696L8.21383 10.5697C6.05491 12.4186 5.34649 15.1203 5.96507 17.3209C6.56959 19.4715 8.47249 21.25 11.8284 21.25C15.6823 21.25 17.9071 18.3069 18.2181 15.2572C18.3249 14.2096 18.158 12.8964 17.826 11.6461C17.6859 11.1187 17.5208 10.6184 17.3432 10.1683C17.1549 10.6721 16.9102 11.1642 16.6222 11.6197C15.988 12.6226 15.0918 13.5283 14.0121 13.9663C13.3164 14.2485 12.7424 13.5951 12.8682 13.0022C13.4689 10.1711 13.6008 8.18605 13.3262 6.62469C13.1706 5.73982 12.881 4.97196 12.4458 4.24838Z" fill="white"/>
</svg>
