<svg width="24" height="24" viewBox="0 0 24 24" fill="none" xmlns="http://www.w3.org/2000/svg">
<path fill-rule="evenodd" clip-rule="evenodd" d="M8.84375 2.50823C8.72996 2.10996 8.31485 1.87934 7.91657 1.99313C5.90424 2.56808 2.48276 5.28174 3.09062 11.3603C3.13183 11.7725 3.49937 12.0732 3.91152 12.032C4.32368 11.9908 4.62439 11.6232 4.58317 11.2111C4.04817 5.86109 7.00764 3.81285 8.32865 3.43542C8.72693 3.32162 8.95755 2.90651 8.84375 2.50823Z" fill="white"/>
<path fill-rule="evenodd" clip-rule="evenodd" d="M13.4072 6.60275C14.2438 7.11223 14.9363 8.02375 15.251 9.31967C15.3487 9.72218 15.7543 9.96924 16.1568 9.87148C16.5593 9.77373 16.8064 9.36818 16.7086 8.96566C16.3111 7.32881 15.402 6.06131 14.1874 5.32161C12.9707 4.58071 11.4955 4.40003 10.0413 4.85555C8.60716 5.30481 7.6574 6.31748 7.08247 7.60106C6.51715 8.86317 6.30403 10.4016 6.30403 11.9997C6.30403 13.0445 6.22491 13.6739 5.9473 14.2592C5.66333 14.858 5.13332 15.4898 4.05614 16.4365C3.745 16.7099 3.71444 17.1838 3.98787 17.4949C4.2613 17.8061 4.73519 17.8366 5.04633 17.5632C6.16199 16.5827 6.88338 15.7859 7.30259 14.9021C7.72817 14.0048 7.80403 13.0976 7.80403 11.9997C7.80403 10.511 8.0062 9.2082 8.45142 8.21423C8.88701 7.24172 9.54299 6.58353 10.4897 6.28696C11.5468 5.95583 12.5726 6.09447 13.4072 6.60275Z" fill="white"/>
<path fill-rule="evenodd" clip-rule="evenodd" d="M10.7153 16.4C10.384 16.1515 9.91386 16.2186 9.66534 16.55C9.33378 16.9921 8.7219 17.7069 7.99127 18.3752C7.24795 19.0551 6.44883 19.6245 5.74245 19.8599C5.34949 19.9909 5.13712 20.4157 5.26811 20.8086C5.3991 21.2016 5.82384 21.4139 6.21679 21.283C7.2247 20.947 8.2113 20.2068 9.00369 19.482C9.80878 18.7455 10.4826 17.9603 10.8653 17.45C11.1139 17.1186 11.0467 16.6485 10.7153 16.4Z" fill="white"/>
<path fill-rule="evenodd" clip-rule="evenodd" d="M16.3396 11.25C15.9254 11.25 15.5896 11.5858 15.5896 12C15.5896 15.3223 13.5729 19.3568 10.2394 21.3569C9.88426 21.57 9.76908 22.0307 9.98219 22.3859C10.1953 22.7411 10.656 22.8562 11.0112 22.6431C14.8206 20.3575 17.0896 15.8205 17.0896 12C17.0896 11.5858 16.7538 11.25 16.3396 11.25Z" fill="white"/>
<path fill-rule="evenodd" clip-rule="evenodd" d="M10.9462 1.94657C10.9167 2.35973 11.2277 2.71858 11.6409 2.7481C13.9926 2.91608 15.693 3.70621 16.8761 4.84956C18.0645 5.99806 18.7865 7.55707 19.0787 9.35258C19.6669 12.9666 18.4876 17.4152 16.0793 20.8555C15.8417 21.1949 15.9243 21.6625 16.2636 21.9C16.6029 22.1376 17.0706 22.0551 17.3081 21.7157C19.9 18.0132 21.2208 13.1761 20.5592 9.11161C20.2266 7.06786 19.3862 5.1894 17.9185 3.77095C16.4454 2.34735 14.3959 1.44107 11.7477 1.25191C11.3346 1.2224 10.9757 1.5334 10.9462 1.94657Z" fill="white"/>
<path fill-rule="evenodd" clip-rule="evenodd" d="M11.5115 8.41524C11.1096 8.5157 10.8653 8.9229 10.9658 9.32475C11.2013 10.267 11.6226 11.9844 10.9818 13.9055C10.8507 14.2985 11.063 14.7233 11.4559 14.8543C11.8489 14.9854 12.2737 14.7731 12.4047 14.3801C13.1885 12.0303 12.6682 9.94951 12.4255 8.97901C12.424 8.97295 12.4225 8.96692 12.421 8.96095C12.3205 8.5591 11.9133 8.31478 11.5115 8.41524Z" fill="white"/>
</svg>
