<svg width="24" height="24" viewBox="0 0 24 24" fill="none" xmlns="http://www.w3.org/2000/svg">
<path d="M12 21.8382V9.21334C12 9.17107 12.0266 9.13338 12.0664 9.11916L21.8664 5.61916C21.9315 5.5959 22 5.64418 22 5.71333V16.9382C22 16.9761 21.9786 17.0107 21.9447 17.0276L12.1447 21.9276C12.0782 21.9609 12 21.9125 12 21.8382Z" fill="#1F1F36"/>
<path fill-rule="evenodd" clip-rule="evenodd" d="M21.6141 4.91285C22.1677 4.71515 22.75 5.12552 22.75 5.71333V16.9382C22.75 17.2602 22.5681 17.5545 22.2801 17.6985L12.4801 22.5985C11.915 22.881 11.25 22.4701 11.25 21.8382V9.21333C11.25 8.85411 11.4758 8.53367 11.8141 8.41285L21.6141 4.91285L21.8664 5.61915L21.6141 4.91285ZM21.25 6.63568L12.75 9.6714V20.7865L21.25 16.5365V6.63568Z" fill="white"/>
<path d="M2.13363 5.61916L11.9336 9.11916C11.9734 9.13338 12 9.17107 12 9.21334V21.8382C12 21.9125 11.9218 21.9609 11.8553 21.9276L2.05528 17.0276C2.0214 17.0107 2 16.9761 2 16.9382V5.71334C2 5.64418 2.06851 5.5959 2.13363 5.61916Z" fill="#1F1F36"/>
<path fill-rule="evenodd" clip-rule="evenodd" d="M1.25 5.71333C1.25 5.12554 1.83232 4.71515 2.38589 4.91285L12.1859 8.41285C12.5242 8.53367 12.75 8.85411 12.75 9.21333V21.8382C12.75 22.4701 12.085 22.881 11.5199 22.5985L1.71987 17.6985C1.4319 17.5545 1.25 17.2601 1.25 16.9382V5.71333ZM2.75 6.63568V16.5365L11.25 20.7865V9.6714L2.75 6.63568Z" fill="white"/>
<path d="M11.9663 2.01202L2.26363 5.47726C2.17514 5.50887 2.17514 5.63401 2.26363 5.66561L11.9663 9.13085C11.9881 9.13862 12.0118 9.13862 12.0336 9.13085L21.7363 5.66561C21.8247 5.63401 21.8247 5.50887 21.7363 5.47726L12.0336 2.01202C12.0118 2.00425 11.9881 2.00425 11.9663 2.01202Z" fill="#1F1F36"/>
<path fill-rule="evenodd" clip-rule="evenodd" d="M11.9999 2.79641L19.77 5.57144L11.9999 8.34647L4.22985 5.57144L11.9999 2.79641ZM11.7141 1.30572C11.8989 1.23969 12.101 1.23969 12.2858 1.30571L12.2858 1.30571L21.9885 4.77096C22.7407 5.03959 22.7406 6.1033 21.9885 6.37192L12.2858 9.83716C12.2858 9.83716 12.2858 9.83716 12.2858 9.83716C12.101 9.90319 11.8989 9.90319 11.7141 9.83716C11.7141 9.83716 11.7141 9.83716 11.714 9.83716L2.01138 6.37192C1.25922 6.10329 1.25923 5.03958 2.01138 4.77096L2.01138 4.77096L11.7141 1.30572Z" fill="white"/>
</svg>
