<svg width="24" height="24" viewBox="0 0 24 24" fill="none" xmlns="http://www.w3.org/2000/svg">
<path d="M2 5C2 3.34314 3.34315 2 5 2H7.57143C9.22828 2 10.5714 3.34315 10.5714 5V7.57143C10.5714 9.22828 9.22828 10.5714 7.57143 10.5714H5C3.34314 10.5714 2 9.22828 2 7.57143V5Z" fill="white"/>
<path fill-rule="evenodd" clip-rule="evenodd" d="M1.25 5C1.25 2.92893 2.92893 1.25 5 1.25H7.57143C9.6425 1.25 11.3214 2.92893 11.3214 5V7.57143C11.3214 9.6425 9.6425 11.3214 7.57143 11.3214H5C2.92893 11.3214 1.25 9.6425 1.25 7.57143V5ZM5 2.75C3.75736 2.75 2.75 3.75736 2.75 5V7.57143C2.75 8.81407 3.75736 9.82143 5 9.82143H7.57143C8.81407 9.82143 9.82143 8.81407 9.82143 7.57143V5C9.82143 3.75736 8.81407 2.75 7.57143 2.75H5Z" fill="white"/>
<path d="M13.4285 5C13.4285 3.34314 14.7716 2 16.4285 2H18.9999C20.6568 2 21.9999 3.34315 21.9999 5V7.57143C21.9999 9.22828 20.6567 10.5714 18.9999 10.5714H16.4285C14.7716 10.5714 13.4285 9.22828 13.4285 7.57143V5Z" fill="white"/>
<path fill-rule="evenodd" clip-rule="evenodd" d="M12.6785 5C12.6785 2.92893 14.3574 1.25 16.4285 1.25H18.9999C21.071 1.25 22.7499 2.92893 22.7499 5V7.57143C22.7499 9.6425 21.071 11.3214 18.9999 11.3214H16.4285C14.3574 11.3214 12.6785 9.6425 12.6785 7.57143V5ZM16.4285 2.75C15.1858 2.75 14.1785 3.75736 14.1785 5V7.57143C14.1785 8.81407 15.1858 9.82143 16.4285 9.82143H18.9999C20.2425 9.82143 21.2499 8.81407 21.2499 7.57143V5C21.2499 3.75736 20.2425 2.75 18.9999 2.75H16.4285Z" fill="white"/>
<path d="M13.4285 16.4286C13.4285 14.7717 14.7716 13.4286 16.4285 13.4286H18.9999C20.6568 13.4286 21.9999 14.7717 21.9999 16.4286V19C21.9999 20.6568 20.6567 22 18.9999 22H16.4285C14.7716 22 13.4285 20.6568 13.4285 19V16.4286Z" fill="white"/>
<path fill-rule="evenodd" clip-rule="evenodd" d="M12.6785 16.4286C12.6785 14.3575 14.3574 12.6786 16.4285 12.6786H18.9999C21.071 12.6786 22.7499 14.3575 22.7499 16.4286V19C22.7499 21.0711 21.071 22.75 18.9999 22.75H16.4285C14.3574 22.75 12.6785 21.0711 12.6785 19V16.4286ZM16.4285 14.1786C15.1858 14.1786 14.1785 15.1859 14.1785 16.4286V19C14.1785 20.2426 15.1858 21.25 16.4285 21.25H18.9999C20.2425 21.25 21.2499 20.2426 21.2499 19V16.4286C21.2499 15.1859 20.2425 14.1786 18.9999 14.1786H16.4285Z" fill="white"/>
<path d="M2 16.4286C2 14.7717 3.34315 13.4286 5 13.4286H7.57143C9.22828 13.4286 10.5714 14.7717 10.5714 16.4286V19C10.5714 20.6568 9.22828 22 7.57143 22H5C3.34314 22 2 20.6568 2 19V16.4286Z" fill="white"/>
<path fill-rule="evenodd" clip-rule="evenodd" d="M1.25 16.4286C1.25 14.3575 2.92893 12.6786 5 12.6786H7.57143C9.6425 12.6786 11.3214 14.3575 11.3214 16.4286V19C11.3214 21.0711 9.6425 22.75 7.57143 22.75H5C2.92893 22.75 1.25 21.0711 1.25 19V16.4286ZM5 14.1786C3.75736 14.1786 2.75 15.1859 2.75 16.4286V19C2.75 20.2426 3.75736 21.25 5 21.25H7.57143C8.81407 21.25 9.82143 20.2426 9.82143 19V16.4286C9.82143 15.1859 8.81407 14.1786 7.57143 14.1786H5Z" fill="white"/>
</svg>
