<svg width="24" height="24" viewBox="0 0 24 24" fill="none" xmlns="http://www.w3.org/2000/svg">
<path d="M3.25 12.4995C3.25 10.8427 4.59315 9.49951 6.25 9.49951H17.7504C19.4072 9.49951 20.7504 10.8427 20.7504 12.4995V18.9998C20.7504 20.6566 19.4072 21.9998 17.7504 21.9998H6.25C4.59315 21.9998 3.25 20.6566 3.25 18.9998V12.4995Z" fill="white"/>
<path fill-rule="evenodd" clip-rule="evenodd" d="M2.5 12.4995C2.5 10.4284 4.17893 8.74951 6.25 8.74951H17.7504C19.8214 8.74951 21.5004 10.4284 21.5004 12.4995V18.9998C21.5004 21.0708 19.8214 22.7498 17.7504 22.7498H6.25C4.17893 22.7498 2.5 21.0708 2.5 18.9998V12.4995ZM6.25 10.2495C5.00736 10.2495 4 11.2569 4 12.4995V18.9998C4 20.2424 5.00736 21.2498 6.25 21.2498H17.7504C18.993 21.2498 20.0004 20.2424 20.0004 18.9998V12.4995C20.0004 11.2569 18.993 10.2495 17.7504 10.2495H6.25Z" fill="white"/>
<path fill-rule="evenodd" clip-rule="evenodd" d="M9.08777 3.91455C8.30919 4.67837 7.75 5.85766 7.75 7.51811V9.49973C7.75 9.91394 7.41421 10.2497 7 10.2497C6.58579 10.2497 6.25 9.91394 6.25 9.49973V7.51811C6.25 5.49947 6.94084 3.91948 8.0373 2.84379C9.12562 1.77609 10.569 1.24955 12.0001 1.24957C13.4312 1.24959 14.8746 1.77617 15.9629 2.84388C17.0594 3.91958 17.7502 5.49956 17.7502 7.51816V9.49973C17.7502 9.91394 17.4144 10.2497 17.0002 10.2497C16.586 10.2497 16.2502 9.91394 16.2502 9.49973V7.51816C16.2502 5.85776 15.691 4.67847 14.9124 3.91463C14.1257 3.1428 13.069 2.74959 12.0001 2.74957C10.9312 2.74956 9.87448 3.14274 9.08777 3.91455Z" fill="white"/>
<path d="M12 17L12 14.4999" stroke="#1F1F36" stroke-width="1.5" stroke-linecap="round" stroke-linejoin="round"/>
</svg>
