<svg xmlns="http://www.w3.org/2000/svg" viewBox="0 0 100 100" fill="none" x="0px" y="0px"><path fill-rule="evenodd" clip-rule="evenodd" d="M61 16C61 22.0751 56.0751 27 50 27C43.9249 27 39 22.0751 39 16C39 9.92487 43.9249 5 50 5C56.0751 5 61 9.92487 61 16ZM61.6667 38.6825C69.8306 38.2311 77.5868 37.2987 84.0658 35.8851C86.7638 35.2964 88.4737 32.6321 87.8851 29.9342C87.2964 27.2362 84.6321 25.5263 81.9342 26.1149C64.3031 29.9617 35.6969 29.9617 18.0658 26.1149C15.3679 25.5263 12.7036 27.2362 12.1149 29.9342C11.5263 32.6321 13.2362 35.2964 15.9342 35.8851C22.5893 37.3371 30.592 38.2815 39 38.7182V59.5592L32.132 88.8589C31.5017 91.5474 33.1703 94.2378 35.8589 94.868C38.5474 95.4983 41.2378 93.8297 41.868 91.1411L47.9635 65.1374H52.7032L58.7986 91.1411C59.4288 93.8297 62.1192 95.4983 64.8078 94.868C67.4963 94.2378 69.1649 91.5474 68.5347 88.8589L61.6667 59.5592V38.6825Z" fill="black"/></svg>
